HIERARCHY
ROOT Hips
{
	OFFSET -21.947001 39.810204 44.525997
	CHANNELS 6 Xposition Yposition Zposition Zrotation Xrotation Yrotation
	JOINT Chest
	{
		OFFSET -0.201599 0.334099 6.453201
		CHANNELS 6 Xposition Yposition Zposition Zrotation Xrotation Yrotation
		JOINT Chest2
		{
			OFFSET 0.000000 0.000000 3.568001
			CHANNELS 6 Xposition Yposition Zposition Zrotation Xrotation Yrotation
			JOINT Neck
			{
				OFFSET 0.000000 0.000000 8.296402
				CHANNELS 6 Xposition Yposition Zposition Zrotation Xrotation Yrotation
				JOINT Head
				{
					OFFSET 0.000000 0.000000 2.173901
					CHANNELS 6 Xposition Yposition Zposition Zrotation Xrotation Yrotation
					End Site
					{
						OFFSET 0.000000 0.000000 7.891998
					}
				}
			}
			JOINT LeftCollar
			{
				OFFSET 1.927601 0.221401 6.049000
				CHANNELS 6 Xposition Yposition Zposition Zrotation Xrotation Yrotation
				JOINT LeftShoulder
				{
					OFFSET 4.959700 0.000000 0.000000
					CHANNELS 6 Xposition Yposition Zposition Zrotation Xrotation Yrotation
					JOINT LeftElbow
					{
						OFFSET 0.000000 0.000000 -8.654202
						CHANNELS 6 Xposition Yposition Zposition Zrotation Xrotation Yrotation
						JOINT LeftWrist
						{
							OFFSET 0.000000 0.000000 -13.864101
							CHANNELS 6 Xposition Yposition Zposition Zrotation Xrotation Yrotation
							End Site
							{
								OFFSET 0.000000 0.000000 -2.173901
							}
						}
					}
				}
			}
			JOINT RightCollar
			{
				OFFSET -3.155701 -0.764999 6.687801
				CHANNELS 6 Xposition Yposition Zposition Zrotation Xrotation Yrotation
				JOINT RightShoulder
				{
					OFFSET -3.592899 0.000000 0.000000
					CHANNELS 6 Xposition Yposition Zposition Zrotation Xrotation Yrotation
					JOINT RightElbow
					{
						OFFSET 0.000000 0.000000 -10.352398
						CHANNELS 6 Xposition Yposition Zposition Zrotation Xrotation Yrotation
						JOINT RightWrist
						{
							OFFSET 0.000000 0.000000 -12.750301
							CHANNELS 6 Xposition Yposition Zposition Zrotation Xrotation Yrotation
							End Site
							{
								OFFSET 0.000000 0.000000 -2.173901
							}
						}
					}
				}
			}
		}
	}
	JOINT LeftHip
	{
		OFFSET 2.460600 -0.518101 -2.735500
		CHANNELS 6 Xposition Yposition Zposition Zrotation Xrotation Yrotation
		JOINT LeftKnee
		{
			OFFSET 0.000000 -0.000004 -17.005899
			CHANNELS 6 Xposition Yposition Zposition Zrotation Xrotation Yrotation
			JOINT LeftAnkle
			{
				OFFSET 0.000000 0.000000 -19.194401
				CHANNELS 6 Xposition Yposition Zposition Zrotation Xrotation Yrotation
				End Site
				{
					OFFSET 0.000000 -8.134600 0.000000
				}
			}
		}
	}
	JOINT RightHip
	{
		OFFSET -3.115499 -0.679600 -2.320301
		CHANNELS 6 Xposition Yposition Zposition Zrotation Xrotation Yrotation
		JOINT RightKnee
		{
			OFFSET 0.000000 -0.000004 -17.680401
			CHANNELS 6 Xposition Yposition Zposition Zrotation Xrotation Yrotation
			JOINT RightAnkle
			{
				OFFSET 0.000000 0.000000 -16.993797
				CHANNELS 6 Xposition Yposition Zposition Zrotation Xrotation Yrotation
				End Site
				{
					OFFSET 0.000000 -8.842300 0.000000
				}
			}
		}
	}
}
MOTION
Frames: 8
Frame Time: 0.041667
63.795204 -1.027195 35.303188 2879.332142 8.330751 14.342407 -0.201602 0.334097 6.453194 2.467428 15.955129 -3.980800 0.000009 0.000007 3.567996 -3.247411 -4.993727 -1.656763 0.000008 0.000002 8.296400 151.985902 -187.995520 156.461438 0.000000 -0.000001 2.173907 -4.052524 3.045940 -7.754903 1.927595 0.221403 6.049000 -16.127390 -1.381004 -14.186952 4.959711 -0.000001 0.000008 194.374644 169.676584 140.752645 0.000002 0.000000 -8.654204 70.505639 -17.387544 11.166357 -0.000000 -0.000010 -13.864107 3901.794850 -24.643488 -401.750443 -3.155705 -0.765000 6.687798 16.176209 -15.736259 -12.753917 -3.592895 -0.000001 0.000008 -192.347730 164.938099 229.801933 -0.000001 0.000000 -10.352406 -419.347360 -13.469750 -356.252613 -0.000002 0.000008 -12.750297 78.470110 162.664302 -145.392898 2.460591 -0.518105 -2.735507 -964.295505 -27.700044 63.468836 0.000002 0.000004 -17.005899 705.452810 188.654073 -101.677044 -0.000005 0.000009 -19.194403 264.202044 177.387294 243.479032 -3.115501 -0.679598 -2.320310 -406.150751 -40.066159 -29.141890 -0.000005 0.000004 -17.680397 -776.032269 176.686694 -257.566816 0.000001 -0.000009 -16.993797 1351.575318 18.455560 -403.898428
63.670212 -1.117897 35.621998 2879.055219 7.942973 14.446552 -0.201600 0.334101 6.453196 2.762977 15.755460 -4.027478 -0.000000 0.000000 3.567997 -3.516337 -4.818052 -1.641385 0.000004 0.000000 8.296402 151.288185 -188.371126 156.643613 0.000003 -0.000003 2.173897 -4.243961 3.195847 -7.789967 1.927601 0.221403 6.048998 -14.976052 -2.435602 -15.167234 4.959706 -0.000004 0.000004 193.307700 168.649269 141.691796 0.000002 -0.000001 -8.654194 69.308962 -17.140305 10.809529 -0.000012 -0.000000 -13.864100 3903.003957 -23.339856 -401.922700 -3.155702 -0.764998 6.687806 14.585888 -20.554688 -12.153761 -3.592894 -0.000002 0.000004 -192.688352 160.404479 229.891982 0.000002 0.000001 -10.352398 -418.793322 -14.782995 -355.972384 -0.000000 -0.000003 -12.750305 78.802044 163.227055 -145.434603 2.460598 -0.518101 -2.735503 -964.451343 -28.052707 62.125570 0.000001 0.000004 -17.005901 705.120480 188.547918 -102.824632 -0.000003 0.000006 -19.194395 264.541040 177.201868 243.965341 -3.115496 -0.679594 -2.320301 -404.496152 -39.245826 -27.946226 -0.000010 -0.000005 -17.680397 -776.947187 176.184907 -256.386887 0.000008 -0.000007 -16.993792 1352.002068 18.347200 -404.286110
63.552612 -1.216293 35.941795 2878.837090 7.487346 14.438783 -0.201594 0.334099 6.453210 2.982200 15.702332 -3.876239 -0.000008 0.000002 3.567996 -3.896618 -4.647157 -1.653764 -0.000011 0.000007 8.296399 150.356806 -188.712062 156.954496 0.000009 -0.000004 2.173907 -4.097903 3.203589 -7.603632 1.927598 0.221405 6.048996 -14.274099 -3.568060 -16.162557 4.959695 0.000003 0.000004 192.796911 167.665681 142.354147 -0.000003 -0.000004 -8.654198 68.574840 -16.454079 10.479135 -0.000007 0.000005 -13.864099 3903.465569 -22.433131 -401.984964 -3.155710 -0.764994 6.687796 13.436947 -20.165536 -11.419834 -3.592901 -0.000005 0.000000 -192.002587 161.176413 228.793866 -0.000002 0.000001 -10.352386 -417.512334 -15.992133 -355.581615 -0.000002 0.000000 -12.750304 78.030916 162.772123 -144.659363 2.460599 -0.518105 -2.735500 -965.422432 -28.978249 60.198425 -0.000005 -0.000003 -17.005901 705.823990 187.392196 -103.850499 -0.000002 -0.000005 -19.194401 264.202673 176.990569 243.852042 -3.115495 -0.679599 -2.320296 -403.325840 -38.317969 -26.925960 -0.000005 0.000002 -17.680391 -777.491635 175.739442 -255.260671 0.000003 -0.000010 -16.993793 1352.417344 18.346093 -404.241468
63.438103 -1.320900 36.267197 2878.600820 6.924652 14.310872 -0.201601 0.334100 6.453205 3.210444 15.718670 -3.613354 0.000006 0.000002 3.567993 -4.126772 -4.548134 -1.642354 -0.000002 -0.000002 8.296389 149.699988 -188.985911 157.150085 0.000004 0.000002 2.173907 -4.267801 3.303842 -7.694562 1.927600 0.221403 6.048994 -13.800872 -4.375370 -16.682633 4.959700 -0.000004 0.000003 192.152660 166.823696 142.660741 0.000003 -0.000004 -8.654197 67.821914 -15.597937 9.961553 -0.000009 0.000004 -13.864109 3904.015481 -22.155995 -402.623095 -3.155706 -0.765004 6.687799 12.533798 -19.693160 -10.874377 -3.592899 0.000001 0.000000 -191.990429 162.300731 227.951854 -0.000001 0.000000 -10.352404 -415.840549 -17.352529 -354.955123 0.000003 0.000006 -12.750308 77.482315 162.584334 -144.114601 2.460595 -0.518106 -2.735503 -965.941417 -29.349190 58.373447 0.000000 -0.000019 -17.005894 705.841256 186.897294 -105.012670 -0.000006 0.000003 -19.194401 264.272341 176.704534 243.531105 -3.115496 -0.679595 -2.320308 -401.858496 -37.360578 -25.625041 -0.000012 0.000001 -17.680391 -778.128973 175.353004 -254.005938 0.000012 -0.000014 -16.993793 1352.793496 18.506095 -404.008121
63.314796 -1.429192 36.598495 2878.300948 6.432396 14.344137 -0.201587 0.334097 6.453202 3.539880 15.516452 -3.676061 -0.000001 0.000004 3.567997 -4.335217 -4.405620 -1.645208 0.000000 -0.000005 8.296410 149.302949 -189.134386 157.384934 0.000006 0.000003 2.173899 -4.473017 3.332621 -7.828361 1.927597 0.221402 6.048995 -13.785167 -4.520902 -16.484699 4.959710 -0.000004 0.000005 191.900107 166.723879 142.471093 0.000003 -0.000006 -8.654197 67.196651 -14.355833 9.132638 -0.000000 -0.000003 -13.864113 3904.389229 -21.685649 -403.940939 -3.155707 -0.765001 6.687800 12.760206 -19.219029 -10.372168 -3.592902 0.000004 0.000011 -192.649024 163.130052 227.757453 -0.000002 -0.000000 -10.352402 -415.784187 -18.541310 -354.718717 0.000001 0.000003 -12.750298 77.727184 162.116398 -143.742847 2.460604 -0.518106 -2.735506 -966.447179 -29.918769 56.642752 0.000000 -0.000012 -17.005892 705.797816 186.638566 -106.329428 -0.000003 0.000004 -19.194397 264.473339 176.449550 243.901247 -3.115483 -0.679595 -2.320307 -400.125213 -36.322430 -24.412421 -0.000008 -0.000003 -17.680389 -779.110936 174.726798 -252.683094 0.000008 0.000005 -16.993792 1353.272593 18.555445 -403.869796
63.188210 -1.545593 36.926395 2877.890918 5.770511 14.184260 -0.201597 0.334094 6.453206 3.905254 15.599358 -3.124803 -0.000010 0.000007 3.567996 -4.714979 -4.333575 -1.734844 0.000010 0.000000 8.296400 148.377295 -189.578034 157.681747 0.000016 0.000005 2.173908 -4.257093 3.399290 -7.817712 1.927613 0.221406 6.048998 -13.702074 -4.768297 -17.238274 4.959696 -0.000005 0.000006 191.781890 166.325611 142.815963 -0.000001 -0.000005 -8.654202 66.325891 -13.282680 8.476352 -0.000003 0.000002 -13.864101 3904.953129 -22.254448 -403.651312 -3.155702 -0.764997 6.687803 12.355415 -22.066437 -10.829940 -3.592903 0.000002 0.000006 -193.448415 160.805398 228.779987 -0.000002 0.000000 -10.352394 -415.289599 -19.595113 -354.299179 0.000004 0.000003 -12.750298 77.311505 162.395944 -143.086958 2.460607 -0.518109 -2.735500 -967.174676 -30.537827 54.515725 -0.000001 0.000003 -17.005898 706.482639 185.519317 -107.345261 -0.000002 0.000005 -19.194395 264.065714 176.195153 243.031190 -3.115486 -0.679601 -2.320303 -398.221885 -35.272528 -23.042374 -0.000007 -0.000003 -17.680393 -779.940012 174.243972 -251.391505 0.000007 -0.000001 -16.993793 1353.668307 18.544910 -403.895942
63.051811 -1.664585 37.260693 2877.693553 5.251006 14.228192 -0.201597 0.334103 6.453206 4.146936 15.398072 -3.222049 -0.000001 0.000003 3.568000 -4.877150 -4.262645 -1.792424 0.000006 -0.000000 8.296398 147.317140 -189.725129 158.565178 0.000000 -0.000012 2.173889 -4.146108 3.542640 -8.014873 1.927605 0.221404 6.048995 -14.456469 -3.772259 -16.582330 4.959696 -0.000005 0.000002 192.373139 166.835266 142.485369 0.000008 -0.000001 -8.654203 66.440863 -12.170573 7.841295 -0.000002 -0.000000 -13.864099 3905.484682 -23.032776 -402.259948 -3.155696 -0.764996 6.687803 13.992680 -18.307455 -10.994564 -3.592897 0.000003 0.000006 -194.389629 165.000746 228.928953 0.000000 0.000001 -10.352396 -414.974645 -20.647206 -353.751753 0.000006 0.000005 -12.750303 76.970044 163.235634 -142.459168 2.460606 -0.518099 -2.735496 -968.065879 -31.353498 52.532081 -0.000001 0.000007 -17.005896 706.909771 185.101637 -108.573500 0.000001 0.000001 -19.194403 264.352254 175.849258 242.907099 -3.115489 -0.679588 -2.320303 -396.687005 -34.078088 -21.979310 -0.000005 -0.000006 -17.680397 -780.798867 173.750956 -249.999540 0.000003 0.000002 -16.993797 1354.026099 18.714310 -403.659535
62.908005 -1.789696 37.599091 2877.400456 4.777072 14.317407 -0.201604 0.334105 6.453196 4.454286 15.153114 -3.197603 -0.000001 0.000002 3.567993 -5.176091 -4.220980 -1.895650 -0.000002 0.000001 8.296396 146.674597 -189.927070 159.022691 0.000001 -0.000008 2.173900 -4.227639 3.701653 -8.093002 1.927599 0.221407 6.049001 -15.005528 -3.044327 -15.573086 4.959714 -0.000005 -0.000001 192.954948 167.164536 141.581967 0.000002 0.000003 -8.654198 65.840134 -11.151646 7.126444 -0.000012 0.000010 -13.864104 3907.139227 -23.737161 -401.018110 -3.155706 -0.765004 6.687806 14.929962 -17.772707 -11.612797 -3.592899 0.000004 0.000000 -195.226655 165.785248 229.827724 -0.000005 -0.000001 -10.352399 -415.008059 -21.754605 -353.132856 -0.000000 0.000004 -12.750303 76.595545 163.857809 -141.871758 2.460593 -0.518101 -2.735505 -969.093577 -32.304640 50.508860 -0.000004 -0.000013 -17.005898 707.634919 184.401720 -109.736449 -0.000011 0.000002 -19.194401 264.278242 175.643260 242.813170 -3.115501 -0.679593 -2.320307 -394.926947 -32.893805 -20.980302 -0.000009 -0.000006 -17.680397 -781.846618 173.228610 -248.538535 -0.000002 -0.000001 -16.993792 1354.318541 18.884841 -403.601670
